<?xml version="1.0" encoding="UTF-8" standalone="no"?>
<!DOCTYPE svg PUBLIC "-//W3C//DTD SVG 1.1//EN"
 "http://www.w3.org/Graphics/SVG/1.1/DTD/svg11.dtd">
<!-- Generated by graphviz version 2.43.0 (0)
 -->
<!-- Title: G Pages: 1 -->
<svg width="605pt" height="463pt"
 viewBox="0.00 0.00 604.94 462.98" xmlns="http://www.w3.org/2000/svg" xmlns:xlink="http://www.w3.org/1999/xlink">
<g id="graph0" class="graph" transform="scale(1 1) rotate(0) translate(4 458.98)">
<title>G</title><style>.edge>path:hover{stroke-width:8}</style>
<polygon fill="white" stroke="transparent" points="-4,4 -4,-458.98 600.94,-458.98 600.94,4 -4,4"/>
<!-- mewbot_api_registry -->
<g id="node1" class="node">
<title>mewbot_api_registry</title><style>.edge>path:hover{stroke-width:8}</style>
<ellipse fill="#3d6eb8" stroke="black" cx="324.44" cy="-292.98" rx="44.3" ry="18"/>
<text text-anchor="middle" x="324.44" y="-290.48" font-family="Helvetica,sans-Serif" font-size="10.00" fill="#ffffff">.api.registry</text>
</g>
<!-- mewbot_core -->
<g id="node4" class="node">
<title>mewbot_core</title><style>.edge>path:hover{stroke-width:8}</style>
<ellipse fill="#2271e7" stroke="black" cx="260.44" cy="-436.98" rx="27" ry="18"/>
<text text-anchor="middle" x="260.44" y="-434.48" font-family="Helvetica,sans-Serif" font-size="10.00" fill="#ffffff">.core</text>
</g>
<!-- mewbot_api_registry&#45;&gt;mewbot_core -->
<g id="edge13" class="edge">
<title>mewbot_api_registry&#45;&gt;mewbot_core</title><style>.edge>path:hover{stroke-width:8}</style>
<path fill="none" stroke="black" d="M296.52,-307.07C276.06,-318.82 251.91,-338.19 252.44,-363.98"/>
</g>
<!-- mewbot_api_v1 -->
<g id="node2" class="node">
<title>mewbot_api_v1</title><style>.edge>path:hover{stroke-width:8}</style>
<ellipse fill="#055fe5" stroke="black" cx="288.44" cy="-220.98" rx="29.37" ry="18"/>
<text text-anchor="middle" x="288.44" y="-218.48" font-family="Helvetica,sans-Serif" font-size="10.00" fill="#ffffff">.api.v1</text>
</g>
<!-- mewbot_api_v1&#45;&gt;mewbot_api_registry -->
<g id="edge5" class="edge">
<title>mewbot_api_v1&#45;&gt;mewbot_api_registry</title><style>.edge>path:hover{stroke-width:8}</style>
<path fill="none" stroke="black" d="M296.97,-238.57C301.17,-246.73 306.33,-256.76 311.04,-265.92"/>
<polygon fill="#055fe5" stroke="black" points="308.03,-267.73 315.72,-275.03 314.26,-264.53 308.03,-267.73"/>
</g>
<!-- mewbot_api_v1&#45;&gt;mewbot_core -->
<g id="edge14" class="edge">
<title>mewbot_api_v1&#45;&gt;mewbot_core</title><style>.edge>path:hover{stroke-width:8}</style>
<path fill="none" stroke="black" d="M281.09,-238.69C270.29,-264.88 251.48,-317.45 252.44,-363.98"/>
</g>
<!-- mewbot_bot -->
<g id="node3" class="node">
<title>mewbot_bot</title><style>.edge>path:hover{stroke-width:8}</style>
<ellipse fill="#3a69b0" stroke="black" cx="195.44" cy="-364.98" rx="27" ry="18"/>
<text text-anchor="middle" x="195.44" y="-362.48" font-family="Helvetica,sans-Serif" font-size="10.00" fill="#ffffff">.bot</text>
</g>
<!-- mewbot_bot&#45;&gt;mewbot_core -->
<g id="edge15" class="edge">
<title>mewbot_bot&#45;&gt;mewbot_core</title><style>.edge>path:hover{stroke-width:8}</style>
<path fill="none" stroke="black" d="M209.23,-380.83C218.1,-390.39 229.8,-402.99 239.78,-413.73"/>
<polygon fill="#3a69b0" stroke="black" points="237.31,-416.21 246.68,-421.16 242.44,-411.45 237.31,-416.21"/>
</g>
<!-- mewbot_data -->
<g id="node5" class="node">
<title>mewbot_data</title><style>.edge>path:hover{stroke-width:8}</style>
<ellipse fill="#4778c2" stroke="black" cx="188.44" cy="-436.98" rx="27" ry="18"/>
<text text-anchor="middle" x="188.44" y="-434.48" font-family="Helvetica,sans-Serif" font-size="10.00" fill="#ffffff">.data</text>
</g>
<!-- mewbot_bot&#45;&gt;mewbot_data -->
<g id="edge17" class="edge">
<title>mewbot_bot&#45;&gt;mewbot_data</title><style>.edge>path:hover{stroke-width:8}</style>
<path fill="none" stroke="black" d="M193.71,-383.29C192.94,-391 192.01,-400.27 191.15,-408.87"/>
<polygon fill="#3a69b0" stroke="black" points="187.66,-408.58 190.15,-418.88 194.63,-409.28 187.66,-408.58"/>
</g>
<!-- mewbot_demo -->
<g id="node6" class="node">
<title>mewbot_demo</title><style>.edge>path:hover{stroke-width:8}</style>
<ellipse fill="#4971ac" stroke="black" cx="344.44" cy="-100.99" rx="27.84" ry="18"/>
<text text-anchor="middle" x="344.44" y="-98.49" font-family="Helvetica,sans-Serif" font-size="10.00" fill="#ffffff">.demo</text>
</g>
<!-- mewbot_demo&#45;&gt;mewbot_api_v1 -->
<g id="edge6" class="edge">
<title>mewbot_demo&#45;&gt;mewbot_api_v1</title><style>.edge>path:hover{stroke-width:8}</style>
<path fill="none" stroke="black" d="M325.66,-114.34C310.78,-125.66 291.92,-143.96 288.44,-165.98"/>
</g>
<!-- mewbot_io_desktop_notification -->
<g id="node7" class="node">
<title>mewbot_io_desktop_notification</title><style>.edge>path:hover{stroke-width:8}</style>
<ellipse fill="#4971ac" stroke="black" cx="178.44" cy="-100.99" rx="82.05" ry="28.98"/>
<text text-anchor="middle" x="178.44" y="-109.49" font-family="Helvetica,sans-Serif" font-size="10.00" fill="#ffffff">.</text>
<text text-anchor="middle" x="178.44" y="-98.49" font-family="Helvetica,sans-Serif" font-size="10.00" fill="#ffffff">io.</text>
<text text-anchor="middle" x="178.44" y="-87.49" font-family="Helvetica,sans-Serif" font-size="10.00" fill="#ffffff">desktop_notification</text>
</g>
<!-- mewbot_io_desktop_notification&#45;&gt;mewbot_api_v1 -->
<g id="edge7" class="edge">
<title>mewbot_io_desktop_notification&#45;&gt;mewbot_api_v1</title><style>.edge>path:hover{stroke-width:8}</style>
<path fill="none" stroke="black" d="M247.37,-116.76C271.73,-126.24 292.31,-141.54 288.44,-165.98"/>
<path fill="none" stroke="black" d="M288.44,-166.98C287.14,-175.2 286.76,-184.22 286.81,-192.45"/>
<polygon fill="#4971ac" stroke="black" points="283.32,-192.79 287.08,-202.69 290.31,-192.6 283.32,-192.79"/>
</g>
<!-- mewbot_io_discord -->
<g id="node8" class="node">
<title>mewbot_io_discord</title><style>.edge>path:hover{stroke-width:8}</style>
<ellipse fill="#466ca4" stroke="black" cx="39.44" cy="-100.99" rx="39.38" ry="18"/>
<text text-anchor="middle" x="39.44" y="-98.49" font-family="Helvetica,sans-Serif" font-size="10.00" fill="#ffffff">.io.discord</text>
</g>
<!-- mewbot_io_discord&#45;&gt;mewbot_api_v1 -->
<g id="edge8" class="edge">
<title>mewbot_io_discord&#45;&gt;mewbot_api_v1</title><style>.edge>path:hover{stroke-width:8}</style>
<path fill="none" stroke="black" d="M121.44,-166.98C159.91,-194.81 213.56,-208.4 249.57,-214.78"/>
<polygon fill="#466ca4" stroke="black" points="249.25,-218.27 259.68,-216.46 250.39,-211.37 249.25,-218.27"/>
</g>
<!-- discord -->
<g id="node14" class="node">
<title>discord</title><style>.edge>path:hover{stroke-width:8}</style>
<polygon fill="#a6c040" stroke="black" points="148.44,-310.98 145.44,-314.98 124.44,-314.98 121.44,-310.98 94.44,-310.98 94.44,-274.98 148.44,-274.98 148.44,-310.98"/>
<text text-anchor="middle" x="121.44" y="-290.48" font-family="Helvetica,sans-Serif" font-size="10.00" fill="#000000">discord</text>
</g>
<!-- mewbot_io_discord&#45;&gt;discord -->
<g id="edge3" class="edge">
<title>mewbot_io_discord&#45;&gt;discord</title><style>.edge>path:hover{stroke-width:8}</style>
<path fill="none" stroke="black" d="M58.03,-117.13C74.46,-130.35 99.2,-149.9 121.44,-165.98"/>
<path fill="none" stroke="black" d="M121.44,-166.98C150.86,-188.26 141.83,-235.1 132.04,-265.01"/>
<polygon fill="#466ca4" stroke="black" points="128.61,-264.22 128.61,-274.82 135.22,-266.54 128.61,-264.22"/>
</g>
<!-- mewbot_io_http -->
<g id="node9" class="node">
<title>mewbot_io_http</title><style>.edge>path:hover{stroke-width:8}</style>
<ellipse fill="#3d5e8f" stroke="black" cx="427.44" cy="-18" rx="30.04" ry="18"/>
<text text-anchor="middle" x="427.44" y="-15.5" font-family="Helvetica,sans-Serif" font-size="10.00" fill="#ffffff">.io.http</text>
</g>
<!-- mewbot_io_http&#45;&gt;mewbot_api_v1 -->
<g id="edge9" class="edge">
<title>mewbot_io_http&#45;&gt;mewbot_api_v1</title><style>.edge>path:hover{stroke-width:8}</style>
<path fill="none" stroke="black" d="M398.84,-23.85C371.18,-30.08 330.2,-43.69 307.44,-72 280.74,-105.21 295.1,-123.89 288.44,-165.98"/>
</g>
<!-- mewbot_io_socket -->
<g id="node11" class="node">
<title>mewbot_io_socket</title><style>.edge>path:hover{stroke-width:8}</style>
<ellipse fill="#3d6eb8" stroke="black" cx="427.44" cy="-100.99" rx="37.17" ry="18"/>
<text text-anchor="middle" x="427.44" y="-98.49" font-family="Helvetica,sans-Serif" font-size="10.00" fill="#ffffff">.io.socket</text>
</g>
<!-- mewbot_io_http&#45;&gt;mewbot_io_socket -->
<g id="edge18" class="edge">
<title>mewbot_io_http&#45;&gt;mewbot_io_socket</title><style>.edge>path:hover{stroke-width:8}</style>
<path fill="none" stroke="black" d="M427.44,-36.18C427.44,-46.81 427.44,-60.69 427.44,-72.79"/>
<polygon fill="#3d5e8f" stroke="black" points="423.94,-72.84 427.44,-82.84 430.94,-72.84 423.94,-72.84"/>
</g>
<!-- aiohttp -->
<g id="node13" class="node">
<title>aiohttp</title><style>.edge>path:hover{stroke-width:8}</style>
<polygon fill="#cc3333" stroke="black" points="509.44,-238.98 506.44,-242.98 485.44,-242.98 482.44,-238.98 455.44,-238.98 455.44,-202.98 509.44,-202.98 509.44,-238.98"/>
<text text-anchor="middle" x="482.44" y="-218.48" font-family="Helvetica,sans-Serif" font-size="10.00" fill="#ffffff">aiohttp</text>
</g>
<!-- mewbot_io_http&#45;&gt;aiohttp -->
<g id="edge1" class="edge">
<title>mewbot_io_http&#45;&gt;aiohttp</title><style>.edge>path:hover{stroke-width:8}</style>
<path fill="none" stroke="black" d="M444.62,-33.34C454.95,-43.07 467.27,-56.89 473.44,-72 489.56,-111.47 488.59,-161.83 485.89,-192.45"/>
<polygon fill="#3d5e8f" stroke="black" points="482.37,-192.48 484.85,-202.78 489.34,-193.18 482.37,-192.48"/>
</g>
<!-- mewbot_io_rss -->
<g id="node10" class="node">
<title>mewbot_io_rss</title><style>.edge>path:hover{stroke-width:8}</style>
<ellipse fill="#43679d" stroke="black" cx="551.44" cy="-18" rx="27.16" ry="18"/>
<text text-anchor="middle" x="551.44" y="-15.5" font-family="Helvetica,sans-Serif" font-size="10.00" fill="#ffffff">.io.rss</text>
</g>
<!-- mewbot_io_rss&#45;&gt;mewbot_api_v1 -->
<g id="edge10" class="edge">
<title>mewbot_io_rss&#45;&gt;mewbot_api_v1</title><style>.edge>path:hover{stroke-width:8}</style>
<path fill="none" stroke="black" d="M556.75,-35.94C564.76,-64.98 576.51,-125.08 551.44,-165.98"/>
<path fill="none" stroke="black" d="M551.44,-166.98C537.84,-184.68 397.19,-205.59 327.35,-214.98"/>
<polygon fill="#43679d" stroke="black" points="326.63,-211.54 317.18,-216.33 327.56,-218.48 326.63,-211.54"/>
</g>
<!-- mewbot_io_rss&#45;&gt;aiohttp -->
<g id="edge2" class="edge">
<title>mewbot_io_rss&#45;&gt;aiohttp</title><style>.edge>path:hover{stroke-width:8}</style>
<path fill="none" stroke="black" d="M551.44,-166.98C543.3,-180.27 530.51,-191.46 518.14,-200.08"/>
<polygon fill="#43679d" stroke="black" points="516.14,-197.21 509.71,-205.63 519.99,-203.05 516.14,-197.21"/>
</g>
<!-- feedparser -->
<g id="node15" class="node">
<title>feedparser</title><style>.edge>path:hover{stroke-width:8}</style>
<polygon fill="#53b67b" stroke="black" points="596.94,-238.98 593.94,-242.98 572.94,-242.98 569.94,-238.98 527.94,-238.98 527.94,-202.98 596.94,-202.98 596.94,-238.98"/>
<text text-anchor="middle" x="562.44" y="-218.48" font-family="Helvetica,sans-Serif" font-size="10.00" fill="#000000">feedparser</text>
</g>
<!-- mewbot_io_rss&#45;&gt;feedparser -->
<g id="edge4" class="edge">
<title>mewbot_io_rss&#45;&gt;feedparser</title><style>.edge>path:hover{stroke-width:8}</style>
<path fill="none" stroke="black" d="M551.44,-166.98C546.66,-174.78 547.11,-184.32 549.5,-193.14"/>
<polygon fill="#43679d" stroke="black" points="546.22,-194.39 552.84,-202.66 552.83,-192.07 546.22,-194.39"/>
</g>
<!-- mewbot_io_socket&#45;&gt;mewbot_api_v1 -->
<g id="edge11" class="edge">
<title>mewbot_io_socket&#45;&gt;mewbot_api_v1</title><style>.edge>path:hover{stroke-width:8}</style>
<path fill="none" stroke="black" d="M406.35,-115.9C398.68,-120.67 389.83,-125.85 381.44,-129.98 341.69,-149.58 295.37,-122.2 288.44,-165.98"/>
</g>
<!-- mewbot_loader -->
<g id="node12" class="node">
<title>mewbot_loader</title><style>.edge>path:hover{stroke-width:8}</style>
<ellipse fill="#43679d" stroke="black" cx="195.44" cy="-292.98" rx="29.37" ry="18"/>
<text text-anchor="middle" x="195.44" y="-290.48" font-family="Helvetica,sans-Serif" font-size="10.00" fill="#ffffff">.loader</text>
</g>
<!-- mewbot_loader&#45;&gt;mewbot_bot -->
<g id="edge12" class="edge">
<title>mewbot_loader&#45;&gt;mewbot_bot</title><style>.edge>path:hover{stroke-width:8}</style>
<path fill="none" stroke="black" d="M195.44,-311.29C195.44,-319 195.44,-328.27 195.44,-336.87"/>
<polygon fill="#43679d" stroke="black" points="191.94,-336.88 195.44,-346.88 198.94,-336.88 191.94,-336.88"/>
</g>
<!-- mewbot_loader&#45;&gt;mewbot_core -->
<g id="edge16" class="edge">
<title>mewbot_loader&#45;&gt;mewbot_core</title><style>.edge>path:hover{stroke-width:8}</style>
<path fill="none" stroke="black" d="M214.82,-306.73C231.15,-319.16 251.94,-339.7 252.44,-363.98"/>
<path fill="none" stroke="black" d="M252.44,-365.98C252.73,-380.22 254.42,-395.98 256.16,-408.94"/>
<polygon fill="#43679d" stroke="black" points="252.73,-409.67 257.61,-419.07 259.66,-408.67 252.73,-409.67"/>
</g>
<!-- yaml -->
<g id="node16" class="node">
<title>yaml</title><style>.edge>path:hover{stroke-width:8}</style>
<polygon fill="#a253b6" stroke="black" points="143.44,-454.98 140.44,-458.98 119.44,-458.98 116.44,-454.98 89.44,-454.98 89.44,-418.98 143.44,-418.98 143.44,-454.98"/>
<text text-anchor="middle" x="116.44" y="-434.48" font-family="Helvetica,sans-Serif" font-size="10.00" fill="#ffffff">yaml</text>
</g>
<!-- mewbot_loader&#45;&gt;yaml -->
<g id="edge19" class="edge">
<title>mewbot_loader&#45;&gt;yaml</title><style>.edge>path:hover{stroke-width:8}</style>
<path fill="none" stroke="black" d="M183.78,-309.82C176.4,-320.16 166.89,-334.07 159.44,-346.98 147.64,-367.42 136.11,-391.59 127.97,-409.58"/>
<polygon fill="#43679d" stroke="black" points="124.7,-408.31 123.81,-418.87 131.09,-411.17 124.7,-408.31"/>
</g>
</g>
</svg>
