<?xml version="1.0" encoding="UTF-8" standalone="no"?>
<!DOCTYPE svg PUBLIC "-//W3C//DTD SVG 1.1//EN"
 "http://www.w3.org/Graphics/SVG/1.1/DTD/svg11.dtd">
<!-- Generated by graphviz version 2.43.0 (0)
 -->
<!-- Title: G Pages: 1 -->
<svg width="291pt" height="332pt"
 viewBox="0.00 0.00 290.50 332.00" xmlns="http://www.w3.org/2000/svg" xmlns:xlink="http://www.w3.org/1999/xlink">
<g id="graph0" class="graph" transform="scale(1 1) rotate(0) translate(4 328)">
<title>G</title><style>.edge>path:hover{stroke-width:8}</style>
<polygon fill="white" stroke="transparent" points="-4,4 -4,-328 286.5,-328 286.5,4 -4,4"/>
<!-- mewbot_api_registry -->
<g id="node1" class="node">
<title>mewbot_api_registry</title><style>.edge>path:hover{stroke-width:8}</style>
<ellipse fill="#3ab0b0" stroke="black" cx="55.5" cy="-90" rx="44.3" ry="18"/>
<text text-anchor="middle" x="55.5" y="-87.5" font-family="Helvetica,sans-Serif" font-size="10.00" fill="#000000">.api.registry</text>
</g>
<!-- mewbot_core -->
<g id="node4" class="node">
<title>mewbot_core</title><style>.edge>path:hover{stroke-width:8}</style>
<ellipse fill="#22e7e7" stroke="black" cx="111.5" cy="-234" rx="27" ry="18"/>
<text text-anchor="middle" x="111.5" y="-231.5" font-family="Helvetica,sans-Serif" font-size="10.00" fill="#000000">.core</text>
</g>
<!-- mewbot_api_registry&#45;&gt;mewbot_core -->
<g id="edge4" class="edge">
<title>mewbot_api_registry&#45;&gt;mewbot_core</title><style>.edge>path:hover{stroke-width:8}</style>
<path fill="none" stroke="black" d="M56.5,-163C60.27,-182.67 74.31,-200.36 87.26,-213.03"/>
<polygon fill="#3ab0b0" stroke="black" points="84.96,-215.67 94.68,-219.9 89.72,-210.54 84.96,-215.67"/>
</g>
<!-- importlib_metadata -->
<g id="node8" class="node">
<title>importlib_metadata</title><style>.edge>path:hover{stroke-width:8}</style>
<polygon fill="#80c040" stroke="black" points="113,-324 110,-328 89,-328 86,-324 0,-324 0,-288 113,-288 113,-324"/>
<text text-anchor="middle" x="56.5" y="-303.5" font-family="Helvetica,sans-Serif" font-size="10.00" fill="#000000">importlib_metadata</text>
</g>
<!-- mewbot_api_registry&#45;&gt;importlib_metadata -->
<g id="edge1" class="edge">
<title>mewbot_api_registry&#45;&gt;importlib_metadata</title><style>.edge>path:hover{stroke-width:8}</style>
<path fill="none" stroke="black" d="M54.09,-108.14C53.31,-122.42 53.09,-143.21 56.5,-161"/>
<path fill="none" stroke="black" d="M56.5,-163C64.03,-202.29 62.01,-248.82 59.53,-277.63"/>
<polygon fill="#3ab0b0" stroke="black" points="56.03,-277.47 58.57,-287.75 63,-278.13 56.03,-277.47"/>
</g>
<!-- mewbot_api_v1 -->
<g id="node2" class="node">
<title>mewbot_api_v1</title><style>.edge>path:hover{stroke-width:8}</style>
<ellipse fill="#46a4a4" stroke="black" cx="55.5" cy="-18" rx="29.37" ry="18"/>
<text text-anchor="middle" x="55.5" y="-15.5" font-family="Helvetica,sans-Serif" font-size="10.00" fill="#000000">.api.v1</text>
</g>
<!-- mewbot_api_v1&#45;&gt;mewbot_api_registry -->
<g id="edge2" class="edge">
<title>mewbot_api_v1&#45;&gt;mewbot_api_registry</title><style>.edge>path:hover{stroke-width:8}</style>
<path fill="none" stroke="black" d="M55.5,-36.3C55.5,-44.02 55.5,-53.29 55.5,-61.89"/>
<polygon fill="#46a4a4" stroke="black" points="52,-61.9 55.5,-71.9 59,-61.9 52,-61.9"/>
</g>
<!-- mewbot_api_v1&#45;&gt;mewbot_core -->
<g id="edge5" class="edge">
<title>mewbot_api_v1&#45;&gt;mewbot_core</title><style>.edge>path:hover{stroke-width:8}</style>
<path fill="none" stroke="black" d="M73.43,-32.34C85.19,-42.05 99.92,-56.22 108.5,-72 127.82,-107.54 139.37,-122.33 127.5,-161"/>
<path fill="none" stroke="black" d="M127.5,-163C123.63,-177.14 119.94,-193.05 117.08,-206.13"/>
<polygon fill="#46a4a4" stroke="black" points="113.66,-205.41 114.98,-215.93 120.5,-206.88 113.66,-205.41"/>
</g>
<!-- mewbot_bot -->
<g id="node3" class="node">
<title>mewbot_bot</title><style>.edge>path:hover{stroke-width:8}</style>
<ellipse fill="#3ab0b0" stroke="black" cx="183.5" cy="-162" rx="27" ry="18"/>
<text text-anchor="middle" x="183.5" y="-159.5" font-family="Helvetica,sans-Serif" font-size="10.00" fill="#000000">.bot</text>
</g>
<!-- mewbot_bot&#45;&gt;mewbot_core -->
<g id="edge6" class="edge">
<title>mewbot_bot&#45;&gt;mewbot_core</title><style>.edge>path:hover{stroke-width:8}</style>
<path fill="none" stroke="black" d="M168.93,-177.17C158.75,-187.06 144.98,-200.45 133.47,-211.64"/>
<polygon fill="#3ab0b0" stroke="black" points="131.03,-209.13 126.3,-218.62 135.91,-214.15 131.03,-209.13"/>
</g>
<!-- mewbot_data -->
<g id="node5" class="node">
<title>mewbot_data</title><style>.edge>path:hover{stroke-width:8}</style>
<ellipse fill="#47c2c2" stroke="black" cx="183.5" cy="-234" rx="27" ry="18"/>
<text text-anchor="middle" x="183.5" y="-231.5" font-family="Helvetica,sans-Serif" font-size="10.00" fill="#000000">.data</text>
</g>
<!-- mewbot_bot&#45;&gt;mewbot_data -->
<g id="edge8" class="edge">
<title>mewbot_bot&#45;&gt;mewbot_data</title><style>.edge>path:hover{stroke-width:8}</style>
<path fill="none" stroke="black" d="M183.5,-180.3C183.5,-188.02 183.5,-197.29 183.5,-205.89"/>
<polygon fill="#3ab0b0" stroke="black" points="180,-205.9 183.5,-215.9 187,-205.9 180,-205.9"/>
</g>
<!-- mewbot_loader -->
<g id="node6" class="node">
<title>mewbot_loader</title><style>.edge>path:hover{stroke-width:8}</style>
<ellipse fill="#439d9d" stroke="black" cx="184.5" cy="-90" rx="29.37" ry="18"/>
<text text-anchor="middle" x="184.5" y="-87.5" font-family="Helvetica,sans-Serif" font-size="10.00" fill="#000000">.loader</text>
</g>
<!-- mewbot_loader&#45;&gt;mewbot_bot -->
<g id="edge3" class="edge">
<title>mewbot_loader&#45;&gt;mewbot_bot</title><style>.edge>path:hover{stroke-width:8}</style>
<path fill="none" stroke="black" d="M184.25,-108.3C184.14,-116.02 184.01,-125.29 183.89,-133.89"/>
<polygon fill="#439d9d" stroke="black" points="180.39,-133.85 183.74,-143.9 187.39,-133.95 180.39,-133.85"/>
</g>
<!-- mewbot_loader&#45;&gt;mewbot_core -->
<g id="edge7" class="edge">
<title>mewbot_loader&#45;&gt;mewbot_core</title><style>.edge>path:hover{stroke-width:8}</style>
<path fill="none" stroke="black" d="M167.38,-105C153.27,-117.82 134.49,-138.23 127.5,-161"/>
</g>
<!-- yaml -->
<g id="node9" class="node">
<title>yaml</title><style>.edge>path:hover{stroke-width:8}</style>
<polygon fill="#8553b6" stroke="black" points="282.5,-252 279.5,-256 258.5,-256 255.5,-252 228.5,-252 228.5,-216 282.5,-216 282.5,-252"/>
<text text-anchor="middle" x="255.5" y="-231.5" font-family="Helvetica,sans-Serif" font-size="10.00" fill="#ffffff">yaml</text>
</g>
<!-- mewbot_loader&#45;&gt;yaml -->
<g id="edge9" class="edge">
<title>mewbot_loader&#45;&gt;yaml</title><style>.edge>path:hover{stroke-width:8}</style>
<path fill="none" stroke="black" d="M196.09,-106.73C203.36,-117.01 212.62,-130.92 219.5,-144 230.12,-164.2 239.67,-188.24 246.27,-206.25"/>
<polygon fill="#439d9d" stroke="black" points="243.03,-207.59 249.7,-215.82 249.62,-205.22 243.03,-207.59"/>
</g>
<!-- clint -->
<g id="node7" class="node">
<title>clint</title><style>.edge>path:hover{stroke-width:8}</style>
<polygon fill="#b83d3d" stroke="black" points="156.5,-36 153.5,-40 132.5,-40 129.5,-36 102.5,-36 102.5,0 156.5,0 156.5,-36"/>
<text text-anchor="middle" x="129.5" y="-15.5" font-family="Helvetica,sans-Serif" font-size="10.00" fill="#ffffff">clint</text>
</g>
</g>
</svg>
